<mxfile host="app.diagrams.net" agent="Mozilla/5.0 (Windows NT 10.0; Win64; x64) AppleWebKit/537.36 (KHTML, like Gecko) Chrome/128.0.0.0 Safari/537.36" version="24.7.15">
  <diagram name="Page-1" id="HobfOYSn6I1F1aPDtAWD">
    <mxGraphModel dx="1532" dy="583" grid="1" gridSize="10" guides="1" tooltips="1" connect="1" arrows="1" fold="1" page="1" pageScale="1" pageWidth="850" pageHeight="1100" math="0" shadow="0">
      <root>
        <mxCell id="0" />
        <mxCell id="1" parent="0" />
        <mxCell id="nJzH-KhN10HSNZl6N4mV-8" style="edgeStyle=orthogonalEdgeStyle;rounded=0;orthogonalLoop=1;jettySize=auto;html=1;exitX=0.5;exitY=1;exitDx=0;exitDy=0;entryX=0.5;entryY=0;entryDx=0;entryDy=0;" edge="1" parent="1" source="nJzH-KhN10HSNZl6N4mV-1" target="nJzH-KhN10HSNZl6N4mV-2">
          <mxGeometry relative="1" as="geometry" />
        </mxCell>
        <mxCell id="nJzH-KhN10HSNZl6N4mV-1" value="Start" style="ellipse;whiteSpace=wrap;html=1;" vertex="1" parent="1">
          <mxGeometry x="207.62" y="10" width="120" height="80" as="geometry" />
        </mxCell>
        <mxCell id="nJzH-KhN10HSNZl6N4mV-5" style="edgeStyle=orthogonalEdgeStyle;rounded=0;orthogonalLoop=1;jettySize=auto;html=1;exitX=0;exitY=0.5;exitDx=0;exitDy=0;" edge="1" parent="1" source="nJzH-KhN10HSNZl6N4mV-2" target="nJzH-KhN10HSNZl6N4mV-4">
          <mxGeometry relative="1" as="geometry" />
        </mxCell>
        <mxCell id="nJzH-KhN10HSNZl6N4mV-7" value="No" style="edgeLabel;html=1;align=center;verticalAlign=middle;resizable=0;points=[];" vertex="1" connectable="0" parent="nJzH-KhN10HSNZl6N4mV-5">
          <mxGeometry x="-0.9414" y="1" relative="1" as="geometry">
            <mxPoint as="offset" />
          </mxGeometry>
        </mxCell>
        <mxCell id="nJzH-KhN10HSNZl6N4mV-10" style="edgeStyle=orthogonalEdgeStyle;rounded=0;orthogonalLoop=1;jettySize=auto;html=1;exitX=1;exitY=0.5;exitDx=0;exitDy=0;entryX=0.5;entryY=0;entryDx=0;entryDy=0;" edge="1" parent="1" source="nJzH-KhN10HSNZl6N4mV-2" target="nJzH-KhN10HSNZl6N4mV-9">
          <mxGeometry relative="1" as="geometry" />
        </mxCell>
        <mxCell id="nJzH-KhN10HSNZl6N4mV-2" value="Is Sunday&amp;nbsp;&lt;div&gt;?&lt;/div&gt;" style="rhombus;whiteSpace=wrap;html=1;" vertex="1" parent="1">
          <mxGeometry x="227.62" y="130" width="80" height="80" as="geometry" />
        </mxCell>
        <mxCell id="nJzH-KhN10HSNZl6N4mV-3" value="End" style="ellipse;whiteSpace=wrap;html=1;" vertex="1" parent="1">
          <mxGeometry x="390" y="700" width="120" height="80" as="geometry" />
        </mxCell>
        <mxCell id="nJzH-KhN10HSNZl6N4mV-6" style="edgeStyle=orthogonalEdgeStyle;rounded=0;orthogonalLoop=1;jettySize=auto;html=1;exitX=0.5;exitY=1;exitDx=0;exitDy=0;entryX=0;entryY=0.5;entryDx=0;entryDy=0;" edge="1" parent="1" source="nJzH-KhN10HSNZl6N4mV-4" target="nJzH-KhN10HSNZl6N4mV-3">
          <mxGeometry relative="1" as="geometry" />
        </mxCell>
        <mxCell id="nJzH-KhN10HSNZl6N4mV-4" value="Go on work as usual" style="rounded=1;whiteSpace=wrap;html=1;" vertex="1" parent="1">
          <mxGeometry x="90" y="630" width="120" height="60" as="geometry" />
        </mxCell>
        <mxCell id="nJzH-KhN10HSNZl6N4mV-12" style="edgeStyle=orthogonalEdgeStyle;rounded=0;orthogonalLoop=1;jettySize=auto;html=1;exitX=0;exitY=0.5;exitDx=0;exitDy=0;" edge="1" parent="1" source="nJzH-KhN10HSNZl6N4mV-9" target="nJzH-KhN10HSNZl6N4mV-11">
          <mxGeometry relative="1" as="geometry" />
        </mxCell>
        <mxCell id="nJzH-KhN10HSNZl6N4mV-13" value="Yes" style="edgeLabel;html=1;align=center;verticalAlign=middle;resizable=0;points=[];" vertex="1" connectable="0" parent="nJzH-KhN10HSNZl6N4mV-12">
          <mxGeometry x="-0.5531" y="-2" relative="1" as="geometry">
            <mxPoint as="offset" />
          </mxGeometry>
        </mxCell>
        <mxCell id="nJzH-KhN10HSNZl6N4mV-15" style="edgeStyle=orthogonalEdgeStyle;rounded=0;orthogonalLoop=1;jettySize=auto;html=1;exitX=1;exitY=0.5;exitDx=0;exitDy=0;" edge="1" parent="1" source="nJzH-KhN10HSNZl6N4mV-9" target="nJzH-KhN10HSNZl6N4mV-14">
          <mxGeometry relative="1" as="geometry" />
        </mxCell>
        <mxCell id="nJzH-KhN10HSNZl6N4mV-9" value="Ask&amp;nbsp;&lt;div&gt;Bapuji ?&lt;/div&gt;" style="rhombus;whiteSpace=wrap;html=1;" vertex="1" parent="1">
          <mxGeometry x="345" y="200" width="80" height="80" as="geometry" />
        </mxCell>
        <mxCell id="nJzH-KhN10HSNZl6N4mV-23" style="edgeStyle=orthogonalEdgeStyle;rounded=0;orthogonalLoop=1;jettySize=auto;html=1;exitX=0.5;exitY=1;exitDx=0;exitDy=0;entryX=0;entryY=0;entryDx=0;entryDy=0;" edge="1" parent="1" source="nJzH-KhN10HSNZl6N4mV-11" target="nJzH-KhN10HSNZl6N4mV-3">
          <mxGeometry relative="1" as="geometry">
            <Array as="points">
              <mxPoint x="285" y="530" />
              <mxPoint x="290" y="530" />
              <mxPoint x="290" y="712" />
            </Array>
          </mxGeometry>
        </mxCell>
        <mxCell id="nJzH-KhN10HSNZl6N4mV-11" value="Eat fafda&amp;nbsp;&lt;div&gt;with family&lt;/div&gt;" style="rounded=1;whiteSpace=wrap;html=1;" vertex="1" parent="1">
          <mxGeometry x="225" y="300" width="120" height="60" as="geometry" />
        </mxCell>
        <mxCell id="nJzH-KhN10HSNZl6N4mV-17" style="edgeStyle=orthogonalEdgeStyle;rounded=0;orthogonalLoop=1;jettySize=auto;html=1;exitX=0.5;exitY=1;exitDx=0;exitDy=0;entryX=0.5;entryY=0;entryDx=0;entryDy=0;" edge="1" parent="1" source="nJzH-KhN10HSNZl6N4mV-14" target="nJzH-KhN10HSNZl6N4mV-16">
          <mxGeometry relative="1" as="geometry" />
        </mxCell>
        <mxCell id="nJzH-KhN10HSNZl6N4mV-14" value="Go for Walk and asks tarak if he can jon" style="rounded=1;whiteSpace=wrap;html=1;" vertex="1" parent="1">
          <mxGeometry x="450" y="300" width="120" height="60" as="geometry" />
        </mxCell>
        <mxCell id="nJzH-KhN10HSNZl6N4mV-19" style="edgeStyle=orthogonalEdgeStyle;rounded=0;orthogonalLoop=1;jettySize=auto;html=1;exitX=0;exitY=0.5;exitDx=0;exitDy=0;entryX=0.5;entryY=0;entryDx=0;entryDy=0;" edge="1" parent="1" source="nJzH-KhN10HSNZl6N4mV-16" target="nJzH-KhN10HSNZl6N4mV-18">
          <mxGeometry relative="1" as="geometry" />
        </mxCell>
        <mxCell id="nJzH-KhN10HSNZl6N4mV-20" value="Yes" style="edgeLabel;html=1;align=center;verticalAlign=middle;resizable=0;points=[];" vertex="1" connectable="0" parent="nJzH-KhN10HSNZl6N4mV-19">
          <mxGeometry x="-0.5823" y="2" relative="1" as="geometry">
            <mxPoint as="offset" />
          </mxGeometry>
        </mxCell>
        <mxCell id="nJzH-KhN10HSNZl6N4mV-22" style="edgeStyle=orthogonalEdgeStyle;rounded=0;orthogonalLoop=1;jettySize=auto;html=1;exitX=1;exitY=0.5;exitDx=0;exitDy=0;entryX=0.5;entryY=0;entryDx=0;entryDy=0;" edge="1" parent="1" source="nJzH-KhN10HSNZl6N4mV-16" target="nJzH-KhN10HSNZl6N4mV-21">
          <mxGeometry relative="1" as="geometry" />
        </mxCell>
        <mxCell id="nJzH-KhN10HSNZl6N4mV-16" value="Ask&lt;div&gt;Anjali ?&lt;/div&gt;" style="rhombus;whiteSpace=wrap;html=1;" vertex="1" parent="1">
          <mxGeometry x="470" y="410" width="80" height="80" as="geometry" />
        </mxCell>
        <mxCell id="nJzH-KhN10HSNZl6N4mV-18" value="Both Tarak and Jetha enjoy fafda" style="rounded=1;whiteSpace=wrap;html=1;" vertex="1" parent="1">
          <mxGeometry x="340" y="510" width="120" height="60" as="geometry" />
        </mxCell>
        <mxCell id="nJzH-KhN10HSNZl6N4mV-25" style="edgeStyle=orthogonalEdgeStyle;rounded=0;orthogonalLoop=1;jettySize=auto;html=1;exitX=0.5;exitY=1;exitDx=0;exitDy=0;entryX=1;entryY=0.5;entryDx=0;entryDy=0;" edge="1" parent="1" source="nJzH-KhN10HSNZl6N4mV-21" target="nJzH-KhN10HSNZl6N4mV-3">
          <mxGeometry relative="1" as="geometry" />
        </mxCell>
        <mxCell id="nJzH-KhN10HSNZl6N4mV-21" value="Jetha enjoy fafda alone" style="rounded=1;whiteSpace=wrap;html=1;" vertex="1" parent="1">
          <mxGeometry x="600" y="510" width="120" height="60" as="geometry" />
        </mxCell>
        <mxCell id="nJzH-KhN10HSNZl6N4mV-24" style="edgeStyle=orthogonalEdgeStyle;rounded=0;orthogonalLoop=1;jettySize=auto;html=1;exitX=0.5;exitY=1;exitDx=0;exitDy=0;entryX=0.217;entryY=0.15;entryDx=0;entryDy=0;entryPerimeter=0;" edge="1" parent="1" source="nJzH-KhN10HSNZl6N4mV-18" target="nJzH-KhN10HSNZl6N4mV-3">
          <mxGeometry relative="1" as="geometry" />
        </mxCell>
      </root>
    </mxGraphModel>
  </diagram>
</mxfile>
